<svg width="309" height="58" viewBox="0 0 309 58" fill="none" xmlns="http://www.w3.org/2000/svg">
<path d="M45.08 48.64C45.1867 48.64 45.3333 48.7067 45.52 48.84L46.36 49.72C45.1867 50.8933 43.92 51.9733 42.56 52.96C41.2 53.92 39.7067 54.7467 38.08 55.44C36.4533 56.1333 34.6667 56.6667 32.72 57.04C30.8 57.44 28.68 57.64 26.36 57.64C22.5467 57.64 19.0267 56.9733 15.8 55.64C12.6 54.28 9.84 52.36 7.52 49.88C5.2 47.3733 3.38667 44.3467 2.08 40.8C0.773334 37.2533 0.12 33.28 0.12 28.88C0.12 24.5867 0.773334 20.68 2.08 17.16C3.38667 13.6133 5.22667 10.5867 7.6 8.08C10 5.54666 12.8533 3.58666 16.16 2.2C19.4933 0.81333 23.16 0.119998 27.16 0.119998C30.92 0.119998 34.2533 0.693331 37.16 1.84C40.0667 2.98666 42.7733 4.64 45.28 6.8L44.68 7.68C44.5733 7.86666 44.36 7.96 44.04 7.96C43.88 7.96 43.6 7.81333 43.2 7.52C42.8267 7.22666 42.32 6.86667 41.68 6.44C41.0667 5.98667 40.3067 5.50667 39.4 5C38.52 4.46666 37.48 3.98666 36.28 3.56C35.08 3.10666 33.72 2.73333 32.2 2.44C30.68 2.14666 29 2 27.16 2C23.5333 2 20.2 2.62666 17.16 3.88C14.12 5.13333 11.5067 6.92 9.32 9.24C7.13333 11.56 5.42667 14.3867 4.2 17.72C3 21.0267 2.4 24.7467 2.4 28.88C2.4 33.0933 3 36.8667 4.2 40.2C5.42667 43.5067 7.12 46.32 9.28 48.64C11.44 50.9333 13.9867 52.6933 16.92 53.92C19.8533 55.1467 23.04 55.76 26.48 55.76C28.64 55.76 30.5733 55.6133 32.28 55.32C33.9867 55.0267 35.5467 54.5867 36.96 54C38.4 53.4133 39.72 52.6933 40.92 51.84C42.1467 50.9867 43.36 50.0133 44.56 48.92C44.7467 48.7333 44.92 48.64 45.08 48.64ZM110.585 41.88L100.925 18.39C100.705 17.85 100.495 17.25 100.295 16.59C100.115 17.25 99.905 17.85 99.665 18.39L90.005 41.88H110.585ZM118.565 57H117.275C116.975 57 116.755 56.83 116.615 56.49L111.125 43.14H89.465L83.975 56.49C83.875 56.83 83.645 57 83.285 57H82.055L99.515 14.82H101.105L118.565 57ZM151.687 35.88H159.727C161.707 35.88 163.487 35.65 165.067 35.19C166.667 34.71 168.017 34.03 169.117 33.15C170.237 32.25 171.087 31.17 171.667 29.91C172.267 28.65 172.567 27.23 172.567 25.65C172.567 22.39 171.507 19.99 169.387 18.45C167.267 16.91 164.207 16.14 160.207 16.14H151.687V35.88ZM178.027 57H176.677C176.457 57 176.257 56.97 176.077 56.91C175.917 56.85 175.757 56.71 175.597 56.49L160.717 38.28C160.557 38.06 160.387 37.88 160.207 37.74C160.047 37.6 159.857 37.49 159.637 37.41C159.437 37.31 159.187 37.24 158.887 37.2C158.607 37.16 158.257 37.14 157.837 37.14H151.687V57H150.037V14.82H160.207C164.787 14.82 168.267 15.71 170.647 17.49C173.027 19.27 174.217 21.97 174.217 25.59C174.217 27.25 173.907 28.76 173.287 30.12C172.667 31.46 171.797 32.63 170.677 33.63C169.557 34.61 168.197 35.4 166.597 36C164.997 36.58 163.227 36.93 161.287 37.05C161.647 37.25 161.997 37.55 162.337 37.95L178.027 57ZM234.498 55.59L234.438 57H209.538V14.82H234.438V16.23H211.188V34.92H230.778V36.3H211.188V55.59H234.498ZM308.091 57H305.931C305.664 57 305.464 56.92 305.331 56.76C305.198 56.5733 305.064 56.4133 304.931 56.28L285.771 29.2C285.691 29.52 285.558 29.7867 285.371 30L266.491 56.28C266.331 56.44 266.171 56.6 266.011 56.76C265.878 56.92 265.704 57 265.491 57H263.451L284.251 28.2L264.371 0.759999H266.531C266.798 0.759999 266.984 0.839998 267.091 0.999996C267.224 1.13333 267.358 1.26666 267.491 1.4L285.851 27.12C285.904 26.9867 285.958 26.8533 286.011 26.72C286.091 26.56 286.184 26.4 286.291 26.24L304.171 1.44C304.278 1.28 304.398 1.13333 304.531 0.999996C304.691 0.839998 304.878 0.759999 305.091 0.759999H307.171L287.371 28.04L308.091 57Z" fill="#0E8B3C"/>
</svg>
